<?xml version="1.0" encoding="utf-8"?>
<!-- Designed by Vexels.com - 2020 All Rights Reserved - https://vexels.com/terms-and-conditions/  -->
<svg version="1.1" id="Capa_1" xmlns="http://www.w3.org/2000/svg" xmlns:xlink="http://www.w3.org/1999/xlink" x="0px" y="0px"
	 viewBox="0 0 1200 1200" enable-background="new 0 0 1200 1200" xml:space="preserve">
<g>
	<circle fill="#72BBDF" cx="600" cy="327.894" r="230.363"/>
	<path fill="#0E87D2" d="M599.999,293.271c-77.859,0-146.557-38.735-188.256-97.87c-26.439,37.495-42.105,83.127-42.105,132.493
		c0,127.226,103.134,230.364,230.361,230.364S830.364,455.12,830.364,327.894c0-49.366-15.67-94.997-42.107-132.493
		C746.559,254.536,677.858,293.271,599.999,293.271z"/>
	<path fill="#46A6CF" d="M788.257,195.401c-41.698,59.135-110.398,97.87-188.258,97.87s-146.557-38.735-188.256-97.87
		c-26.439,37.495-42.105,83.127-42.105,132.493c0,10.509,0.951,20.774,2.312,30.91c50.531,71.607,133.743,118.507,228.049,118.507
		s177.519-46.9,228.053-118.509c1.362-10.136,2.312-20.4,2.312-30.908C830.364,278.527,814.694,232.896,788.257,195.401z"/>
	<path fill="#72BBDF" d="M683.122,796.875c-259.01,0-468.985-209.969-468.985-468.981c0-75.813,18.407-147.183,50.351-210.556
		C134.239,217.918,50,375.173,50,552.467c0,303.757,246.241,550.002,550,550.002c303.755,0,550-246.245,550-550.002
		c0-38.808-4.127-76.634-11.772-113.169C1088.156,644.426,903.672,796.875,683.122,796.875z"/>
	<path fill="#0E86D1" d="M516.878,796.875c259.01,0,468.985-209.969,468.985-468.981c0-75.813-18.407-147.183-50.351-210.556
		C1065.761,217.918,1150,375.173,1150,552.467c0,303.757-246.241,550.002-550,550.002c-303.755,0-550-246.245-550-550.002
		c0-38.808,4.127-76.634,11.772-113.169C111.844,644.426,296.328,796.875,516.878,796.875z"/>
	<path fill="#46A6CF" d="M931.609,546.848c-9.627,18.196-20.441,35.651-32.292,52.328c-0.474,0.667-0.946,1.335-1.423,2.001
		c-11.795,16.414-24.599,32.037-38.366,46.769c-0.552,0.592-1.12,1.168-1.677,1.758c-6.446,6.83-13.089,13.465-19.933,19.897
		c-0.582,0.551-1.153,1.113-1.74,1.66c-14.467,13.458-29.796,25.982-45.873,37.545c-1.329,0.956-2.66,1.902-4.001,2.845
		c-7.669,5.395-15.467,10.612-23.465,15.549c-0.272,0.169-0.535,0.35-0.808,0.518c-8.383,5.149-16.954,10.009-25.672,14.635
		c-1.496,0.794-3.017,1.538-4.525,2.316c-7.221,3.732-14.549,7.276-21.983,10.638c-1.874,0.848-3.729,1.715-5.614,2.538
		c-8.902,3.885-17.914,7.567-27.093,10.905c-0.369,0.134-0.747,0.244-1.115,0.378c-8.608,3.105-17.358,5.901-26.191,8.508
		c-2.43,0.719-4.875,1.398-7.321,2.078c-7.693,2.134-15.456,4.08-23.301,5.827c-1.815,0.404-3.602,0.869-5.424,1.252
		c-9.447,1.985-18.999,3.671-28.645,5.078c-2.245,0.328-4.513,0.565-6.767,0.859c-7.683,1.007-15.423,1.826-23.221,2.457
		c-2.783,0.225-5.563,0.459-8.359,0.635c-9.902,0.625-19.854,1.051-29.913,1.051c-0.002,0-0.005,0-0.005,0l0,0l0,0
		c-220.552,0-405.034-152.448-455.109-357.577c-7.646,36.536-11.769,74.362-11.769,113.17c0,149.039,59.375,284.142,155.645,383.198
		c4.518,4.533,9.073,9.138,13.394,13.291c0.009,0.008,0.016,0.015,0.023,0.022c35.274,5.931,71.456,9.184,108.416,9.184
		C602.047,958.161,836.636,787.667,931.609,546.848z"/>
</g>
</svg>
